<svg width="103" height="61" viewBox="0 0 103 61" fill="none" xmlns="http://www.w3.org/2000/svg">
<path d="M73.8409 14.696V12.6364H99.3203V14.696H87.6903V49H85.4709V14.696H73.8409Z" fill="#282EC2"/>
<rect x="22.0607" y="32" width="32.4411" height="32.5" rx="1.25" transform="rotate(-45 22.0607 32)" stroke="#282EC2" stroke-width="1.5"/>
<line y1="-0.75" x2="8" y2="-0.75" transform="matrix(-0.707107 -0.707107 0.758949 -0.65115 36.7831 17.3452)" stroke="#282EC2" stroke-width="1.5"/>
<line y1="-0.75" x2="8" y2="-0.75" transform="matrix(0.707107 0.707107 -0.758949 0.65115 52 48)" stroke="#282EC2" stroke-width="1.5"/>
<line y1="-0.75" x2="8" y2="-0.75" transform="matrix(0.707107 -0.707107 0.651151 0.758949 60.8268 24.8741)" stroke="#282EC2" stroke-width="1.5"/>
<line y1="-0.75" x2="8" y2="-0.75" transform="matrix(-0.707107 0.707107 -0.651151 -0.758949 27.9243 37.7211)" stroke="#282EC2" stroke-width="1.5"/>
<line y1="-0.75" x2="8" y2="-0.75" transform="matrix(-0.707107 -0.707107 0.758949 -0.65115 28.7831 25.3452)" stroke="#282EC2" stroke-width="1.5"/>
<line y1="-0.75" x2="8" y2="-0.75" transform="matrix(0.73866 0.674078 -0.728421 0.685129 60.9395 40)" stroke="#282EC2" stroke-width="1.5"/>
<line y1="-0.75" x2="8" y2="-0.75" transform="matrix(0.707107 -0.707107 0.651151 0.758949 52.9261 16.776)" stroke="#282EC2" stroke-width="1.5"/>
<line y1="-0.75" x2="8" y2="-0.75" transform="matrix(-0.707107 0.707107 -0.651151 -0.758949 35.4107 46.2037)" stroke="#282EC2" stroke-width="1.5"/>
<circle cx="28.5" cy="10.5" r="2.75" stroke="#282EC2" stroke-width="1.5"/>
<circle cx="60.3132" cy="54.804" r="2.75" transform="rotate(179.568 60.3132 54.804)" stroke="#282EC2" stroke-width="1.5"/>
<circle cx="67.739" cy="16.641" r="2.75" transform="rotate(90.7068 67.739 16.641)" stroke="#282EC2" stroke-width="1.5"/>
<circle cx="20.7473" cy="45.7435" r="2.75" transform="rotate(-86.4307 20.7473 45.7435)" stroke="#282EC2" stroke-width="1.5"/>
<circle cx="20.5" cy="18.5" r="2.75" stroke="#282EC2" stroke-width="1.5"/>
<circle cx="69.3789" cy="46.6719" r="2.75" transform="rotate(179.568 69.3789 46.6719)" stroke="#282EC2" stroke-width="1.5"/>
<circle cx="59.8383" cy="8.54291" r="2.75" transform="rotate(90.7068 59.8383 8.54291)" stroke="#282EC2" stroke-width="1.5"/>
<circle cx="28.2337" cy="54.2261" r="2.75" transform="rotate(-86.4307 28.2337 54.2261)" stroke="#282EC2" stroke-width="1.5"/>
<rect x="32.0607" y="32.1421" width="18.5" height="18.5" rx="1.25" transform="rotate(-45 32.0607 32.1421)" stroke="#282EC2" stroke-width="1.5"/>
<line x1="48.3747" y1="12.0953" x2="51.9103" y2="8.55976" stroke="#282EC2" stroke-width="1.5"/>
<line x1="56.4426" y1="20.2139" x2="59.7883" y2="16.4982" stroke="#282EC2" stroke-width="1.5"/>
<line x1="64.2698" y1="28.356" x2="67.6155" y2="24.6403" stroke="#282EC2" stroke-width="1.5"/>
<line x1="36.3747" y1="54.0953" x2="39.9103" y2="50.5598" stroke="#282EC2" stroke-width="1.5"/>
<line x1="28.4426" y1="45.2139" x2="31.7883" y2="41.4982" stroke="#282EC2" stroke-width="1.5"/>
<line x1="20.4697" y1="38.0052" x2="24.0052" y2="34.4697" stroke="#282EC2" stroke-width="1.5"/>
<path d="M7.47514 12.6364V49H5.25568V12.6364H7.47514Z" fill="#282EC2"/>
</svg>
